<?xml version="1.0" encoding="utf-8"?>
<!-- Generator: Adobe Illustrator 23.1.0, SVG Export Plug-In . SVG Version: 6.00 Build 0)  -->
<svg version="1.1" id="Calque_1" xmlns="http://www.w3.org/2000/svg" xmlns:xlink="http://www.w3.org/1999/xlink" x="0px" y="0px"
	 viewBox="0 0 90.3 106.4" style="enable-background:new 0 0 90.3 106.4;" xml:space="preserve">
<style type="text/css">
	.st0{display:none;}
	.st1{display:inline;fill:#FFFFFF;}
	.st2{display:inline;}
	.st3{fill:#FFFFFF;}
	.st4{fill:none;stroke:#FFFFFF;stroke-width:0.5;stroke-miterlimit:10;}
	.st5{fill:none;stroke:#FFFFFF;stroke-width:0.5;stroke-miterlimit:10;stroke-dasharray:2.1866,1.0933;}
	.st6{display:none;fill:#FFFFFF;}
</style>
<g id="A" class="st0">
	<path class="st1" d="M14.2,106.4c-4.7,0-9.5,0-14.2,0C0,76,0,45.6,0,15.2c10.6,0,21.3,0,31.9,0c5.9,0,11.8,0,17.7,0
		C63.9,15.2,71,22.8,71,38c0,22.8,0,45.6,0,68.4c-7.1,0-14.2,0-21.3,0c0-6.8-3.6-11.4-10.9-14c-8.2-2.9-16.4-5.8-24.6-8.8
		C14.2,91.2,14.2,98.8,14.2,106.4 M14.2,22.8v38c0,6.1,4.3,11.7,10.9,14l24.6,8.8V38c0-8.4-7.9-15.2-17.7-15.2
		C31.9,22.8,14.2,22.8,14.2,22.8z"/>
	<g id="LWPOLYLINE_2_" class="st2">
		<g>
			<polygon class="st3" points="90.3,95.3 90.3,102.7 83.9,106.4 77.4,102.7 77.4,95.3 83.9,91.5 			"/>
		</g>
	</g>
	<g id="LWPOLYLINE_1_" class="st2">
		<g>
			<g>
				<polyline class="st4" points="88.5,95.3 89.4,95.8 89.4,96.8 				"/>
				<line class="st5" x1="89.4" y1="97.9" x2="89.4" y2="100.6"/>
				<polyline class="st4" points="89.4,101.2 89.4,102.2 88.5,102.7 				"/>
				<line class="st5" x1="87.6" y1="103.2" x2="85.2" y2="104.6"/>
				<polyline class="st4" points="84.7,104.9 83.9,105.4 83,104.9 				"/>
				<line class="st5" x1="82" y1="104.3" x2="79.7" y2="102.9"/>
				<polyline class="st4" points="79.2,102.7 78.3,102.2 78.3,101.2 				"/>
				<line class="st5" x1="78.3" y1="100.1" x2="78.3" y2="97.3"/>
				<polyline class="st4" points="78.3,96.8 78.3,95.8 79.2,95.3 				"/>
				<line class="st5" x1="80.1" y1="94.8" x2="82.5" y2="93.4"/>
				<polyline class="st4" points="83,93.1 83.9,92.6 84.7,93.1 				"/>
				<line class="st5" x1="85.7" y1="93.7" x2="88" y2="95"/>
			</g>
		</g>
	</g>
</g>
<path id="B" class="st6" d="M71,106.4c-7.1,0-14.2,0-21.3,0c0-6.8-3.6-11.4-10.9-14c-9.3-3.3-18.6-6.6-27.8-9.9
	C3.6,79.9,0,75.2,0,68.4C0,45.6,0,22.8,0,0c4.7,0,9.5,0,14.2,0c0,10.1,5.9,15.2,17.7,15.2c5.9,0,11.8,0,17.7,0
	C63.9,15.2,71,22.8,71,38C71,60.8,71,83.6,71,106.4z M14.2,22.8v38c0,6.1,4.3,11.7,10.9,14l24.6,8.8V38c0-8.4-7.9-15.2-17.7-15.2
	C31.9,22.8,14.2,22.8,14.2,22.8z"/>
<g id="C" class="st0">
	<path class="st1" d="M49.7,106.4c7.1,0,14.2,0,21.3,0c0-22.8,0-45.6,0-68.4c0-15.2-7.1-22.8-21.3-22.8c-5.9,0-11.8,0-17.7,0
		c-11.8,0-17.7-5.1-17.7-15.2C9.5,0,4.7,0,0,0c0,35.5,0,71,0,106.4c4.7,0,9.5,0,14.2,0c0-7.6,0-15.2,0-22.8c0-7.6,0-15.2,0-22.8
		c0-12.7,0-25.3,0-38c5.9,0,11.8,0,17.7,0c4.9,0,9.1,1.5,12.5,4.5c3.5,3,5.2,6.6,5.2,10.8c0,15.2,0,30.4,0,45.6
		C49.7,91.2,49.7,98.8,49.7,106.4"/>
</g>
<g id="D" class="st0">
	<path class="st1" d="M48.5,106.4c0-6-4.2-11.4-10.6-13.7l-27.1-9.7c-2.8-1.9-5.1-4.2-6.9-6.8C-4,64.8,0.6,50.2,13.9,43.5V62
		c0,6,4.2,11.4,10.6,13.7l23.9,8.5c2.8,1.1,5.1,2.9,6.6,5.1c4,6,1.6,13.6-5.3,17.1"/>
</g>
<path id="E" class="st3" d="M71,106.4c-7.1,0-14.2,0-21.3,0c0-6.8-3.6-11.4-10.9-14c-9.3-3.3-18.6-6.6-27.8-9.9
	C3.6,79.9,0,75.2,0,68.4C0,45.6,0,22.8,0,0c4.7,0,9.5,0,14.2,0c0,10.1,5.9,15.2,17.7,15.2c5.9,0,11.8,0,17.7,0
	C63.9,15.2,71,22.8,71,38C71,60.8,71,83.6,71,106.4z M14.2,22.8v38c0,6.1,4.3,11.7,10.9,14l24.6,8.8V38c0-8.4-7.9-15.2-17.7-15.2
	C31.9,22.8,14.2,22.8,14.2,22.8z"/>
</svg>
