<?xml version="1.0" encoding="utf-8"?>
<!-- Generator: Adobe Illustrator 23.1.0, SVG Export Plug-In . SVG Version: 6.00 Build 0)  -->
<svg version="1.1" id="Calque_1" xmlns="http://www.w3.org/2000/svg" xmlns:xlink="http://www.w3.org/1999/xlink" x="0px" y="0px"
	 viewBox="0 0 24 24" style="enable-background:new 0 0 24 24;" xml:space="preserve">
<style type="text/css">
	.st0{fill:none;stroke:#000000;stroke-linecap:round;stroke-linejoin:round;}
</style>
<title></title>
<g id="Facebook">
	<g id="_Group_">
		<path id="_Path_" class="st0" d="M16.5,1.5H7C4,1.5,1.5,4,1.5,7v10c0,3,2.5,5.5,5.5,5.5h4c0.3,0,0.5-0.2,0.5-0.5v-7
			c0-0.3-0.2-0.5-0.5-0.5h-1c-0.3,0-0.5-0.2-0.5-0.5v-2c0-0.3,0.2-0.5,0.5-0.5h1c0.3,0,0.5-0.2,0.5-0.5v-1c0-2.5,2-4.5,4.5-4.5h2
			c0.3,0,0.5,0.2,0.5,0.5v2c0,0.3-0.2,0.5-0.5,0.5h-2c-0.8,0-1.5,0.7-1.5,1.5v1c0,0.3,0.2,0.5,0.5,0.5h3c0.3,0,0.5,0.3,0.5,0.6
			l-0.3,2c0,0.2-0.2,0.4-0.5,0.4H15c-0.3,0-0.5,0.2-0.5,0.5v7c0,0.3,0.2,0.5,0.5,0.5h2c3,0,5.5-2.5,5.5-5.5V7.5
			C22.5,4.2,19.8,1.5,16.5,1.5z"/>
	</g>
</g>
</svg>
