<?xml version="1.0" encoding="utf-8"?>
<!-- Generator: Adobe Illustrator 23.1.0, SVG Export Plug-In . SVG Version: 6.00 Build 0)  -->
<svg version="1.1" id="Calque_1" xmlns="http://www.w3.org/2000/svg" xmlns:xlink="http://www.w3.org/1999/xlink" x="0px" y="0px"
	 viewBox="0 0 106.9 171.5" style="enable-background:new 0 0 106.9 171.5;" xml:space="preserve">
<style type="text/css">
	.st0{fill:#0D0802;}
	.st1{fill:none;stroke:#FFFFFF;stroke-width:0.5;stroke-miterlimit:10;}
	.st2{fill:none;stroke:#FFFFFF;stroke-width:0.5;stroke-miterlimit:10;stroke-dasharray:1.2393,0.6197;}
	.st3{fill:none;stroke:#0D0802;stroke-width:2;stroke-miterlimit:10;}
</style>
<g>
	<g>
		<path class="st0" d="M63.4,23.1c-4.2,0-8.3,0-12.5,0c-8.3,0-12.5-3.6-12.5-10.7c-3.3,0-6.6,0-10,0c0,24.9,0,49.9,0,74.8
			c3.3,0,6.6,0,10,0c0-5.3,0-10.7,0-16c5.8,2.1,11.5,4.1,17.3,6.2c5.1,1.8,7.7,5.1,7.7,9.9c5,0,10,0,15,0c0-16,0-32.1,0-48.1
			C78.4,28.5,73.4,23.1,63.4,23.1z M63.4,71.2l-17.3-6.2c-4.6-1.7-7.7-5.5-7.7-9.9V28.5c0,0,12.5,0,12.5,0c6.9,0,12.5,4.8,12.5,10.7
			V71.2z"/>
		<g id="LWPOLYLINE_2_">
			<g>
				<polygon class="st0" points="92,79.4 92,84.6 87.4,87.2 82.9,84.6 82.9,79.4 87.4,76.8 				"/>
			</g>
		</g>
		<g id="LWPOLYLINE_1_">
			<g>
				<g>
					<polyline class="st1" points="90.5,79.3 91.3,79.8 91.3,80.8 					"/>
					<line class="st2" x1="91.3" y1="81.4" x2="91.3" y2="82.9"/>
					<polyline class="st1" points="91.3,83.3 91.3,84.3 90.5,84.8 					"/>
					<line class="st2" x1="89.9" y1="85.1" x2="88.6" y2="85.8"/>
					<polyline class="st1" points="88.3,86 87.4,86.5 86.6,86 					"/>
					<line class="st2" x1="86" y1="85.7" x2="84.7" y2="84.9"/>
					<polyline class="st1" points="84.4,84.8 83.6,84.3 83.6,83.3 					"/>
					<line class="st2" x1="83.6" y1="82.6" x2="83.6" y2="81.1"/>
					<polyline class="st1" points="83.6,80.8 83.6,79.8 84.4,79.3 					"/>
					<line class="st2" x1="85" y1="79" x2="86.3" y2="78.2"/>
					<polyline class="st1" points="86.6,78 87.4,77.5 88.3,78 					"/>
					<line class="st2" x1="88.8" y1="78.3" x2="90.2" y2="79.1"/>
				</g>
			</g>
		</g>
		<circle class="st3" cx="53.4" cy="53.4" r="52.4"/>
	</g>
	<g>
		<path d="M0,158.7h0.7l2.4-5.9h0.2l2.6,5.9h0.7v0.1H3.9v-0.1h0.8l-0.9-2.2h-2l-0.9,2.2h0.7v0.1H0V158.7z M2.7,154.2l-0.9,2.2h1.9
			L2.7,154.2z"/>
		<path d="M10.9,153.2h-0.3c-0.8,0-1.2,0.3-1.6,1.4H9v-1.5h5.1v1.5H14c-0.3-1.1-0.8-1.4-1.6-1.4h-0.3v5.6h0.7v0.1h-2.7v-0.1h0.7
			V153.2z"/>
		<path d="M17.1,153.1H22v1.4h-0.1c-0.1-0.4-0.5-1.3-1.5-1.3h-1.3v2.5h0.5c0.8,0,1.1-0.5,1.2-1.2h0.1v2.5h-0.1
			c-0.1-0.6-0.4-1.2-1.1-1.2h-0.5v2.9h1.3c1,0,1.6-0.7,1.8-1.7h0.1v1.8h-5.2v-0.1h0.7v-5.6h-0.7V153.1z"/>
		<path d="M25.4,153.1h2.7v0.1h-0.7v5.6h1.3c0.7,0,1.5-0.5,1.8-1.7h0.1v1.8h-5.2v-0.1h0.7v-5.6h-0.7V153.1z"/>
		<path d="M32.4,153.1h2.7v0.1h-0.7v5.6h0.7v0.1h-2.7v-0.1h0.7v-5.6h-0.7V153.1z"/>
		<path d="M37.5,153.1h4.9v1.4h-0.1c-0.1-0.4-0.5-1.3-1.5-1.3h-1.3v2.5h0.5c0.8,0,1.1-0.5,1.2-1.2h0.1v2.5h-0.1
			c-0.1-0.6-0.4-1.2-1.1-1.2h-0.5v2.9h1.3c1,0,1.6-0.7,1.8-1.7h0.1v1.8h-5.2v-0.1h0.7v-5.6h-0.7V153.1z"/>
		<path d="M46,153.2h-0.7v-0.1h1.2c0.2,0,0.4,0,0.7,0c0.2,0,0.5,0,0.7,0c0.9,0,2,0.3,2,1.4c0,0.9-0.9,1.2-1.6,1.3v0
			c1.1,0.2,1.7,0.3,1.8,1.5c0.1,1.4,0.1,1.6,0.5,1.6c0.2,0,0.4-0.2,0.5-0.3l0.1,0.1c-0.2,0.2-0.4,0.4-1,0.4c-1.2,0-1.2-0.9-1.3-1.4
			c0-0.9-0.1-1.7-1.1-1.7h-0.5v2.9H48v0.1h-2.7v-0.1H46V153.2z M47.2,155.7h0.3c1,0,1.1-0.6,1.1-1.2c0-1-0.2-1.4-1-1.4
			c-0.1,0-0.2,0-0.4,0V155.7z"/>
		<path d="M59.2,153.2h-0.7v-0.1h0.7c0.3,0,0.6,0,0.8,0c0.3,0,0.6,0,0.8,0c1.5,0,3.6,0.5,3.6,2.9c0,2.4-2.1,2.9-3.4,2.9
			c-0.3,0-0.6,0-0.9,0c-0.3,0-0.6,0-0.9,0h-0.7v-0.1h0.7V153.2z M60.4,158.7c0.2,0,0.3,0,0.4,0c2.1,0,2.3-1.7,2.3-2.7
			c0-1.8-0.3-2.9-2.2-2.9c-0.2,0-0.4,0-0.5,0V158.7z"/>
		<path d="M66.6,153.1h4.9v1.4h-0.1c-0.1-0.4-0.5-1.3-1.5-1.3h-1.3v2.5H69c0.8,0,1.1-0.5,1.2-1.2h0.1v2.5h-0.1
			c-0.1-0.6-0.4-1.2-1.1-1.2h-0.5v2.9h1.3c1,0,1.6-0.7,1.8-1.7h0.1v1.8h-5.2v-0.1h0.7v-5.6h-0.7V153.1z"/>
		<path d="M83.4,154.7h-0.1c-0.2-0.7-0.6-1.7-1.8-1.7c-1.6,0-1.7,1.2-1.7,2.9c0,2.2,0.5,2.9,1.7,2.9c1,0,1.6-0.9,1.8-1.7h0.1v1.7
			h-0.1c-0.1-0.1-0.1-0.2-0.3-0.2c-0.3,0-0.8,0.3-1.5,0.3c-1.6,0-3-1.3-3-3c0-1.8,1.7-3,3-3c0.7,0,1.2,0.3,1.5,0.3
			c0.1,0,0.2,0,0.3-0.2h0.1V154.7z"/>
		<path d="M86.6,153.1h2.7v0.1h-0.7v3.7c0,1,0.1,2,1.3,2c1.7,0,1.7-1.4,1.7-1.9v-3.8h-0.7v-0.1h1.6v0.1h-0.8v3.8c0,0.5,0,2-2,2
			c-2.1,0-2.4-1-2.4-2v-3.8h-0.8V153.1z"/>
		<path d="M95.3,153.1H98v0.1h-0.7v5.6H98v0.1h-2.7v-0.1H96v-5.6h-0.7V153.1z"/>
		<path d="M101.8,153.2H101v-0.1h1.2c0.2,0,0.4,0,0.7,0c0.2,0,0.5,0,0.7,0c0.9,0,2,0.3,2,1.4c0,0.9-0.9,1.2-1.6,1.3v0
			c1.1,0.2,1.7,0.3,1.8,1.5c0.1,1.4,0.1,1.6,0.5,1.6c0.2,0,0.4-0.2,0.5-0.3l0.1,0.1c-0.2,0.2-0.4,0.4-1,0.4c-1.2,0-1.2-0.9-1.3-1.4
			c0-0.9-0.1-1.7-1.1-1.7H103v2.9h0.7v0.1H101v-0.1h0.7V153.2z M103,155.7h0.3c1,0,1.1-0.6,1.1-1.2c0-1-0.2-1.4-1-1.4
			c-0.1,0-0.2,0-0.4,0V155.7z"/>
		<path d="M37.4,171.3h0.7v0.1h-2.7v-0.1h0.7v-5.6h-0.7v-0.1h0.7c0.3,0,0.6,0,0.8,0c0.3,0,0.6,0,0.8,0c1,0,2.4,0.3,2.4,1.5
			c0,0.8-0.8,1.5-2.6,1.5h-0.3V171.3z M37.4,168.5h0.3c0.9,0,1.3-0.4,1.3-1.4c0-0.9-0.3-1.5-1.2-1.5c-0.1,0-0.2,0-0.3,0V168.5z"/>
		<path d="M42.4,171.3h0.7l2.4-5.9h0.2l2.6,5.9H49v0.1h-2.7v-0.1H47l-0.9-2.2h-2l-0.9,2.2h0.7v0.1h-1.5V171.3z M45.1,166.8l-0.9,2.2
			H46L45.1,166.8z"/>
		<path d="M51.8,165.7H51v-0.1h1.2c0.2,0,0.4,0,0.7,0c0.2,0,0.5,0,0.7,0c0.9,0,2,0.3,2,1.4c0,0.9-0.9,1.2-1.6,1.3v0
			c1.1,0.2,1.7,0.3,1.8,1.5c0.1,1.4,0.1,1.6,0.5,1.6c0.2,0,0.4-0.2,0.5-0.3l0.1,0.1c-0.2,0.2-0.4,0.4-1,0.4c-1.2,0-1.2-0.9-1.3-1.4
			c0-0.9-0.1-1.7-1.1-1.7h-0.5v2.9h0.7v0.1H51v-0.1h0.7V165.7z M52.9,168.2h0.3c1,0,1.1-0.6,1.1-1.2c0-1-0.2-1.4-1-1.4
			c-0.1,0-0.2,0-0.4,0V168.2z"/>
		<path d="M60,165.6h2.7v0.1H62v5.6h0.7v0.1H60v-0.1h0.7v-5.6H60V165.6z"/>
		<path d="M66.3,169.6h0.1c0,0.3,0.2,0.9,0.7,1.3c0.5,0.5,0.9,0.5,1.3,0.5c1.1,0,1.4-0.8,1.4-1.3c0-1.6-3.4-0.7-3.4-3
			c0-0.9,0.8-1.7,2-1.7c0.7,0,1.1,0.3,1.3,0.3c0.1,0,0.2,0,0.2-0.2h0.1v1.5H70c-0.3-0.7-0.5-1.6-1.6-1.6c-0.9,0-1.3,0.5-1.3,1
			c0,1.5,3.5,0.8,3.5,2.9c0,1.1-0.9,2-2.2,2c-0.7,0-1.4-0.3-1.6-0.3c-0.1,0-0.2,0-0.3,0.2h-0.1V169.6z"/>
		<g>
			<g id="HATCH_8_">
				<polygon class="st0" points="38.4,118.1 34.2,118.1 34.2,121 34.2,122.7 34.2,124.5 34.2,126.2 34.2,127.9 34.2,129.6 
					34.2,131.3 34.2,133.1 34.2,134.8 34.2,136.5 34.2,138.2 34.2,139.9 34.2,141.7 34.2,143.4 34.3,143.9 34.6,143.9 34.8,143.9 
					35.1,143.9 35.3,143.9 35.6,143.9 35.8,143.9 36.1,143.9 36.3,143.9 36.6,143.9 36.8,143.9 37.1,143.9 37.3,143.9 37.6,143.9 
					37.8,143.9 38.1,143.9 38.3,143.9 38.4,143.5 38.4,142.7 38.4,141.9 38.4,141.1 38.4,140.3 38.4,139.5 38.4,138.7 38.4,137.9 
					38.4,137.1 38.4,136.3 38.4,135.5 38.4,134.7 38.4,133.9 38.4,133.1 38.4,132.3 38.4,131.5 38.4,130.7 38.4,130.2 38.4,130 
					38.4,129.8 38.4,129.6 38.4,129.4 38.4,129.2 38.4,129 38.4,128.8 38.4,128.6 38.4,128.4 38.4,128.2 38.4,128 38.4,127.8 
					38.4,127.6 38.4,127.4 38.4,127.2 38.4,127 38.5,126.9 38.7,126.9 38.9,126.9 39.1,126.9 39.3,126.9 39.5,126.9 39.6,126.9 
					39.8,126.9 40,126.9 40.2,126.9 40.4,126.9 40.6,126.9 40.8,126.9 41,126.9 41.2,126.9 41.4,126.9 41.6,126.9 41.7,126.9 
					41.9,126.9 42.1,126.9 42.3,126.9 42.4,126.9 42.6,126.9 42.7,127 42.9,127 43,127.1 43.2,127.1 43.3,127.2 43.5,127.3 
					43.6,127.3 43.8,127.4 43.9,127.5 44,127.6 44.2,127.7 44.3,127.9 44.4,128 44.5,128.1 44.6,128.2 44.7,128.4 44.8,128.5 
					44.9,128.6 45,128.8 45,128.9 45.1,129.1 45.2,129.2 45.2,129.4 45.2,129.5 45.3,129.7 45.3,129.9 45.3,130 45.3,130.2 
					45.3,130.5 45.3,130.9 45.3,131.4 45.3,131.9 45.3,132.4 45.3,132.9 45.3,133.3 45.3,133.8 45.3,134.3 45.3,134.8 45.3,135.3 
					45.3,135.8 45.3,136.2 45.3,136.7 45.3,137.2 45.3,137.7 45.3,138.2 45.3,138.7 45.4,139.3 45.4,139.9 45.5,140.4 45.6,140.9 
					45.7,141.3 45.9,141.8 46.1,142.1 46.3,142.5 46.6,142.8 46.8,143.1 47.2,143.3 47.5,143.5 47.9,143.7 48.3,143.8 48.7,143.9 
					49.1,143.9 49.6,143.8 49.6,143.1 49.6,142.4 49.6,141.7 49.6,140.9 49.6,140.2 49.6,139.5 49.6,138.7 49.6,138 49.6,137.3 
					49.6,136.5 49.6,135.8 49.6,135.1 49.6,134.4 49.6,133.6 49.6,132.9 49.6,132.2 49.6,131.4 49.5,130.8 49.5,130.3 49.4,129.7 
					49.3,129.2 49.2,128.8 49,128.3 48.8,127.9 48.6,127.6 48.4,127.3 48.1,127 47.8,126.8 47.4,126.6 47.1,126.4 46.7,126.3 
					46.3,126.2 45.8,126.1 45.3,126.1 45.1,126.1 44.9,126.1 44.7,126.1 44.5,126.1 44.3,126.1 44.1,126.1 43.9,126.1 43.7,126.1 
					43.5,126.1 43.3,126.1 43.1,126.1 42.9,126.1 42.7,126.1 42.5,126.1 42.3,126.1 42.1,126.1 41.9,126.1 41.5,126.1 41.1,126.1 
					40.8,126 40.5,125.9 40.2,125.8 39.9,125.7 39.6,125.5 39.4,125.3 39.2,125.1 39,124.9 38.9,124.7 38.7,124.4 38.6,124.1 
					38.5,123.8 38.5,123.4 38.4,123.1 38.4,122.7 38.4,122.2 38.4,121.8 38.4,121.3 38.4,120.8 38.4,120.3 38.4,119.9 38.4,119.4 
					38.4,118.9 38.4,118.1 				"/>
			</g>
			<g id="HATCH_7_">
				<path class="st0" d="M12.4,126.9c1.1,0.5,2,1.1,2.8,1.9c0.8,0.8,1.4,1.7,1.9,2.8c0.4,1.1,0.7,2.2,0.7,3.4c0,1.2-0.2,2.4-0.7,3.5
					c-0.5,1.1-1.1,2-1.9,2.8c-0.8,0.8-1.7,1.4-2.8,1.9c-1.1,0.5-2.3,0.7-3.5,0.7c-1.3,0-2.4-0.2-3.5-0.7c-1.1-0.5-2-1.1-2.8-1.9
					c-0.8-0.8-1.4-1.7-1.9-2.8c-0.4-1.1-0.7-2.2-0.7-3.5c0-1.2,0.2-2.3,0.7-3.4s1.1-2,1.9-2.8c0.8-0.8,1.7-1.4,2.8-1.9
					c1.1-0.5,2.3-0.7,3.5-0.7C10.2,126.2,11.4,126.4,12.4,126.9z M11.1,142.7c0.5-0.5,0.9-1.1,1.2-1.9c0.3-0.8,0.4-1.7,0.5-2.7
					c0.1-1,0.1-2,0.1-3.1s0-2.1-0.1-3.1c-0.1-1-0.2-1.9-0.5-2.7c-0.3-0.8-0.7-1.4-1.2-1.9c-0.5-0.5-1.3-0.7-2.2-0.7
					c-0.9,0-1.7,0.2-2.2,0.7c-0.5,0.5-0.9,1.1-1.2,1.9C5.3,130.1,5.1,131,5,132c-0.1,1-0.1,2-0.1,3.1s0,2.1,0.1,3.1
					c0.1,1,0.2,1.9,0.5,2.7c0.3,0.8,0.6,1.4,1.2,1.9c0.5,0.5,1.3,0.7,2.2,0.7C9.9,143.4,10.6,143.2,11.1,142.7z"/>
			</g>
			<g id="HATCH_6_">
				<polygon class="st0" points="70.1,143.4 70.1,143.9 70.3,143.9 70.8,143.9 71.3,143.8 71.8,143.6 72.3,143.5 72.8,143.3 
					73.3,143.1 73.7,142.8 74.1,142.5 74.4,142.2 74.8,141.8 75.1,141.5 75.4,141 75.6,140.6 75.8,140.1 76,139.6 76.1,139.1 
					76.1,138.6 76.1,137.9 76,137.1 75.8,136.5 75.5,135.8 75.1,135.3 74.6,134.8 74,134.3 73.3,133.9 72.6,133.5 72,133.3 
					69,132.2 68.7,132.1 68.3,131.9 68,131.7 67.7,131.6 67.5,131.4 67.3,131.3 67.1,131.1 66.9,130.9 66.8,130.8 66.7,130.6 
					66.6,130.4 66.5,130.3 66.4,130.1 66.4,130 66.4,129.8 66.4,129.7 66.3,129.6 66.3,129.4 66.4,129.1 66.5,128.5 66.7,128.1 
					66.9,127.7 67.3,127.4 67.8,127.1 68.3,126.9 68.7,126.8 69.2,126.7 69.8,126.7 70.1,126.7 70.1,126.2 70.1,126.2 69.8,126.1 
					69.2,126.2 68.7,126.2 68.2,126.3 67.7,126.5 67.2,126.7 66.7,126.9 66.3,127.2 65.9,127.4 65.5,127.8 65.2,128.1 64.9,128.5 
					64.6,128.8 64.4,129.3 64.2,129.7 64,130.2 63.9,130.6 63.9,131.1 63.8,131.6 63.8,132 63.9,132.5 63.9,132.9 64,133.2 
					64.2,133.6 64.3,133.9 64.5,134.2 64.7,134.5 64.9,134.7 65.1,135 65.3,135.2 65.5,135.4 65.8,135.6 66,135.7 66.3,135.9 
					66.5,136 66.8,136.1 67,136.2 67.2,136.3 70.1,137.4 70.4,137.6 70.8,137.7 71.2,137.9 71.5,138.1 71.7,138.2 71.9,138.4 
					72.1,138.5 72.3,138.7 72.5,138.9 72.6,139.1 72.7,139.2 72.8,139.4 72.8,139.6 72.9,139.7 72.9,139.9 72.9,140 73,140.2 
					73,140.3 73,140.7 72.9,141.1 72.8,141.5 72.7,141.9 72.6,142.1 72.4,142.4 72.2,142.6 72,142.8 71.8,143 71.6,143.1 
					71.3,143.2 71.1,143.3 70.9,143.3 70.6,143.4 70.4,143.4 70.2,143.4 70.1,143.4 				"/>
			</g>
			<g id="HATCH_5_">
				<path class="st0" d="M101.4,126.9c1.1,0.5,2,1.1,2.8,1.9c0.8,0.8,1.4,1.7,1.9,2.8c0.4,1.1,0.7,2.2,0.7,3.4
					c0,1.2-0.2,2.4-0.7,3.5c-0.5,1.1-1.1,2-1.9,2.8c-0.8,0.8-1.7,1.4-2.8,1.9c-1.1,0.5-2.3,0.7-3.5,0.7c-1.3,0-2.4-0.2-3.5-0.7
					c-1.1-0.5-2-1.1-2.8-1.9c-0.8-0.8-1.4-1.7-1.9-2.8c-0.4-1.1-0.7-2.2-0.7-3.5c0-1.2,0.2-2.3,0.7-3.4c0.4-1.1,1.1-2,1.9-2.8
					c0.8-0.8,1.7-1.4,2.8-1.9c1.1-0.5,2.3-0.7,3.5-0.7C99.2,126.1,100.4,126.4,101.4,126.9z M100.1,142.7c0.5-0.5,0.9-1.1,1.2-1.9
					c0.3-0.8,0.4-1.7,0.5-2.7c0.1-1,0.1-2,0.1-3.1s0-2.1-0.1-3.1c-0.1-1-0.2-1.9-0.5-2.7c-0.3-0.8-0.7-1.4-1.2-1.9
					c-0.5-0.5-1.3-0.7-2.2-0.7c-0.9,0-1.7,0.2-2.2,0.7c-0.5,0.5-0.9,1.1-1.2,1.9c-0.3,0.8-0.4,1.7-0.5,2.7c-0.1,1-0.1,2-0.1,3.1
					s0,2.1,0.1,3.1c0.1,1,0.2,1.9,0.5,2.7c0.3,0.8,0.6,1.4,1.2,1.9c0.5,0.5,1.3,0.7,2.2,0.7C98.9,143.4,99.6,143.2,100.1,142.7z"/>
			</g>
		</g>
	</g>
</g>
</svg>
